<?xml version="1.0" encoding="utf-8"?>
<svg width="90" height="90" viewBox="0 0 90 90" fill="none" xmlns="http://www.w3.org/2000/svg">
<path d="M63.5445 35.5525H43.8057L54.3198 16H30.5142L20 48.2868H36.9615L32.8947 71.3488C32.5972 72.7525 34.1842 73.5547 35.0769 72.552L63.5445 35.5525Z" fill="#FFC226" stroke="black" stroke-width="5" stroke-miterlimit="10" stroke-linecap="round" stroke-linejoin="round"/>
<path d="M65.9255 72.954C67.6118 72.954 69.0004 71.5502 69.0004 69.8457C69.0004 68.1411 67.6118 66.7373 65.9255 66.7373C64.2393 66.7373 62.8506 68.1411 62.8506 69.8457C62.8506 71.5502 64.2393 72.954 65.9255 72.954Z" fill="black"/>
<path d="M53.031 72.954C54.7172 72.954 56.1059 71.5502 56.1059 69.8457C56.1059 68.1411 54.7172 66.7373 53.031 66.7373C51.3448 66.7373 49.9561 68.1411 49.9561 69.8457C49.9561 71.5502 51.3448 72.954 53.031 72.954Z" fill="black"/>
<path d="M59.5768 63.5282C61.2631 63.5282 62.6518 62.1245 62.6518 60.4199C62.6518 58.7153 61.2631 57.3115 59.5768 57.3115C57.8906 57.3115 56.502 58.7153 56.502 60.4199C56.502 62.1245 57.8906 63.5282 59.5768 63.5282Z" fill="black"/>
</svg>
