<?xml version="1.0" encoding="utf-8"?>
<svg width="90" height="90" viewBox="0 0 90 90" fill="none" xmlns="http://www.w3.org/2000/svg">
<path d="M69.2998 18.6543H20.2998V78H69.2998V18.6543Z" fill="white" stroke="black" stroke-width="5" stroke-miterlimit="10"/>
<path d="M45.6998 36.8455C44.9998 35.752 44.2998 35.752 43.5998 36.8455C40.3998 41.5176 35.7998 48.3767 35.7998 51.7565C35.7998 54.2416 36.7998 56.4286 38.3998 58.0191C40.0998 59.709 42.2998 60.6037 44.6998 60.6037C47.0998 60.6037 49.3998 59.6096 50.9998 58.0191C52.5998 56.4286 53.5998 54.1422 53.5998 51.7565C53.6998 48.3767 48.8998 41.5176 45.6998 36.8455Z" fill="#FFC226" stroke="black" stroke-width="5" stroke-miterlimit="10"/>
<path d="M69.3 18.6543V11" stroke="black" stroke-width="5" stroke-miterlimit="10"/>
<path d="M13 18.6543H19.7" stroke="black" stroke-width="5" stroke-miterlimit="10"/>
<path d="M69.2998 18.6543H76.9998" stroke="black" stroke-width="5" stroke-miterlimit="10"/>
<path d="M13 78H19.7" stroke="black" stroke-width="5" stroke-miterlimit="10"/>
<path d="M69.2998 78H76.9998" stroke="black" stroke-width="5" stroke-miterlimit="10"/>
</svg>
