<?xml version="1.0" encoding="utf-8"?>
<svg width="90" height="90" viewBox="0 0 90 90" fill="none" xmlns="http://www.w3.org/2000/svg">
<path d="M68.0145 71.1478C71.7963 67.3445 71.7963 61.0391 68.0145 57.2358C64.2327 53.4325 57.9629 53.3325 54.1811 57.2358C50.3993 61.0391 50.3993 67.3445 54.1811 71.1478C58.0624 74.951 64.1332 74.951 68.0145 71.1478Z" fill="#F4F4F4" stroke="black" stroke-width="5" stroke-miterlimit="10"/>
<path d="M68.6119 30.3123C71.7966 27.1096 71.7966 21.805 68.6119 18.4021C65.4272 15.1993 60.1526 15.1993 56.7689 18.4021C53.5842 21.6048 53.5842 26.9094 56.7689 30.3123C60.1526 33.6151 65.4272 33.6151 68.6119 30.3123Z" fill="#F4F4F4" stroke="black" stroke-width="5" stroke-miterlimit="10"/>
<path d="M46.9159 52.9312C53.2852 46.5257 53.1857 36.1168 46.8164 29.7112C40.447 23.3057 30.0969 23.3057 23.7275 29.6112C17.3582 35.9166 17.4577 46.4256 23.8271 52.8311C30.1964 59.2366 40.6461 59.4368 46.9159 52.9312Z" fill="#D50000" stroke="black" stroke-width="5" stroke-miterlimit="10" stroke-linecap="round" stroke-linejoin="round"/>
<path d="M47.8115 51.8301L53.6833 57.7352L47.8115 51.8301Z" fill="#F4F4F4"/>
<path d="M47.8115 51.8301L53.6833 57.7352" stroke="black" stroke-width="5" stroke-miterlimit="10"/>
<path d="M50.3994 35.2166L56.0721 29.5117L50.3994 35.2166Z" fill="#F4F4F4"/>
<path d="M50.3994 35.2166L56.0721 29.5117" stroke="black" stroke-width="5" stroke-miterlimit="10"/>
</svg>
