<?xml version="1.0" encoding="utf-8"?>
<svg width="90" height="90" viewBox="0 0 90 90" fill="none" xmlns="http://www.w3.org/2000/svg">
<path d="M41.3194 14H64.6959C65.3922 14 65.7901 14.601 65.7901 15.2019L63.2038 39.2408H26.5972L24.0109 15.2019C23.9115 14.5008 24.5083 14 25.1051 14H33.0631L36.4452 18.4071C36.7436 18.9079 37.5394 18.9079 37.9373 18.4071L41.3194 14Z" fill="white" stroke="black" stroke-width="5" stroke-miterlimit="10"/>
<path d="M58.6275 50.3586H31.2721C28.6858 50.3586 26.6963 48.3554 26.6963 45.7512V39.3408H63.3028V45.7512C63.3028 48.1551 61.1144 50.3586 58.6275 50.3586Z" fill="#F4F4F4" stroke="black" stroke-width="5" stroke-miterlimit="10"/>
<path d="M44.9996 75.9998C42.4133 75.9998 40.4238 73.9966 40.4238 71.3924V50.3584H49.5755V71.5927C49.476 73.9966 47.4865 75.9998 44.9996 75.9998Z" fill="#DDDDDD" stroke="black" stroke-width="5" stroke-miterlimit="10"/>
<path d="M53.8537 27.9225C57.5342 28.0227 60.8168 28.7238 64.3979 29.6253L65.9895 15.2019C66.089 14.5008 65.4921 14 64.8953 14H41.4194L38.0372 18.4071C37.7388 18.9079 36.943 18.9079 36.5451 18.4071L33.163 14H25.2051C24.5088 14.1002 24.1108 14.7011 24.1108 15.4023L25.7025 30.1261C36.2467 31.328 44.3041 27.7222 53.8537 27.9225Z" fill="#D50000" stroke="black" stroke-width="5" stroke-miterlimit="10" stroke-linecap="round" stroke-linejoin="round"/>
</svg>
