<?xml version="1.0" encoding="utf-8"?>
<!-- Generator: Adobe Illustrator 24.3.0, SVG Export Plug-In . SVG Version: 6.00 Build 0)  -->
<svg version="1.1" id="레이어_1" xmlns="http://www.w3.org/2000/svg" xmlns:xlink="http://www.w3.org/1999/xlink" x="0px"
	 y="0px" viewBox="0 0 316.1 85.5" style="enable-background:new 0 0 316.1 85.5;" xml:space="preserve">
<style type="text/css">
	.st0{fill:none;stroke:#000000;stroke-width:3.0831;stroke-linecap:round;stroke-linejoin:round;stroke-miterlimit:10;}
</style>
<path class="st0" d="M135.3,54.1c-1.5,4.4-2.9,8.7-4.4,13.1c-0.7,2.1-1.1,4.9,0.8,6c2.1,1.2,4.4-1.1,5.7-3.1
	c2.4-3.6,4.8-7.2,7.1-10.8c-3.1,5.6-5,17.1-1.5,18.5c3.5,1.4,28.6-30.3,42.5-45.8c1.1-1.2,2.2-2.4,2.5-4c0.4-1.5-0.2-3.4-1.6-4
	c-1.5-0.6-3.1,0.2-4.4,1.2c-11.9,9.5-18.9,21.8-25.2,39c3.8-5.4,11.1-10.3,14.4-13.3c4.9-4.4,13.1-3.8,19.2-1.3
	c-4.5,2.6-9.7,3.8-14.5,5.7c-4.8,2-9.6,5.1-11.4,10c-0.5,1.3-0.7,2.7-0.4,4c0.6,2.2,2.8,3.7,5,4.1c2.3,0.4,4.6-0.1,6.8-0.6
	c8.6-2.3,16.8-6.2,23.9-11.5 M15.4,22.6c2.7-9.5,10.2-17.1,18.5-20.3c4.3-1.6,9.5-0.9,12.9,2.1c3.6,3.3,4.1,8.8,3.9,13.6
	c-0.9,20.5-10.1,40.6-25.1,54.6c-5.3,4.9-12.7,9.3-19.3,6.6c-2.4-1-4.5-3.1-4.8-5.7c-0.2-2.1,0.9-4.2,2.1-5.9C6,64.3,9,61.3,12.4,59
	c3.4-2.3,13.1-5.8,15.8-6.5c-4.2-4-11.3-9-12.8-14.3C14,33.5,13.8,28.3,15.4,22.6z M227.4,53.3c15.2-2.3,29.1-12,36.4-25.6
	c0.5-0.9,0.9-1.8,0.7-2.8c-0.5-2.2-3.6-2.4-5.7-1.5c-7.1,3-10.4,11-13.9,17.9c-4,8.1-9.1,15.7-15,22.5c-2.5,2.8-5.4,5.7-9.1,6.1
	c-3.7,0.4-7.9-3.1-6.8-6.6c0.9-2.8,4.5-3.9,7.4-3.2c2.9,0.7,5.2,2.7,7.6,4.4c10.8,7.5,24.4,9.6,37.4,11.1c16,1.8,32,3,48.1,3.7
	 M106.1,48.3c-0.2,0-5.9,1.2-6.2,1.1c13.7-1.2,26.8-11.4,35.9-21.8c2.7-3.1,5.6-6.6,6-10.7c0.4-4.1-3-8.9-7.1-8.1
	c-2.6,0.5-4.4,2.9-5.4,5.3c-3.1,7.9-0.1,16.6,0.8,25.1c0.4,4.2,0.3,8.5-0.4,12.7c-1.2,7.2-4.5,14.5-10.9,18.1
	c-6.3,3.6-18.7-3.2-21.1-10.1 M52.5,42.9c-3.2,2.4-5.7,5.8-6.9,9.6c-0.3,0.9-0.5,2,0.2,2.7c0.9,0.9,2.5,0.4,3.5-0.4
	c2.2-1.7,3.9-4.2,4.5-7c1.6,1.1,0.3,4,1.8,5.2c1.3,1,3.1-0.3,4.1-1.6c2.5-3.2,4.7-6.6,6.6-10.2c-0.1,1.1-0.3,2.2-0.4,3.3
	c2-2.3,6.3-0.1,6.6,3c0.3,3.1-2,5.8-4.6,7.5c0.6-3.1,2.5-5.9,5-7.7c1-0.7,2.3-1.3,3.3-0.7c1.8,1.1,0.5,4.1,1.4,6
	c0.9,2,3.8,2.1,5.5,0.9c1.7-1.3,2.6-3.4,3.4-5.3s1.9-4,3.8-5c1.9-0.9,4.2-0.6,6-1.6c1.9-0.9,2.4-4.4,0.4-4.7
	c0.1,5.6-1.2,11.2-3.6,16.3c0-0.5,0.8-0.7,1.1-0.4c0.4,0.4,0.4,0.9,0.4,1.4c-0.1,8.1-2.9,16.2-7.8,22.7c-3,3.9-7.4,7.5-12.3,6.9
	c-4.3-0.5-7.5-4.2-9.9-7.8c-0.9-1.3-1.7-2.6-2-4.2c-1.2-5.2,3.9-9.8,9-11.2c5.1-1.4,10.6-0.7,15.7-2"/>
</svg>
