<?xml version="1.0" encoding="utf-8"?>
<!-- Generator: Adobe Illustrator 25.2.3, SVG Export Plug-In . SVG Version: 6.00 Build 0)  -->
<svg version="1.1" id="Layer_1" xmlns="http://www.w3.org/2000/svg" xmlns:xlink="http://www.w3.org/1999/xlink" x="0px" y="0px"
	 viewBox="0 0 255 221" style="enable-background:new 0 0 255 221;" xml:space="preserve">
<style type="text/css">
	.st0{fill:#2D5FFF;}
	.st1{fill:none;stroke:#000000;stroke-width:12;stroke-miterlimit:10;}
	.st2{fill:#EEEEEE;stroke:#000000;stroke-width:12;stroke-miterlimit:10;}
</style>
<path class="st0" d="M36.5,110.3v62.2c0,17.2,40.7,31.1,90.9,31.1s90.9-13.9,90.9-31.1v-62.2"/>
<path class="st1" d="M36.5,110.3v62.2c0,17.2,40.7,31.1,90.9,31.1s90.9-13.9,90.9-31.1v-62.2"/>
<path class="st1" d="M218.3,110.3c0,17.2-40.7,31.1-90.9,31.1s-90.9-13.9-90.9-31.1"/>
<path class="st2" d="M218.3,48.1c0-17.2-40.7-31.1-90.9-31.1S36.5,30.9,36.5,48.1v62.2c0,17.2,40.7,31.1,90.9,31.1
	s90.9-13.9,90.9-31.1V48.1z"/>
<path class="st2" d="M127.4,79.2c50.2,0,90.9-13.9,90.9-31.1S177.6,17,127.4,17c-50.2,0-90.9,13.9-90.9,31.1S77.2,79.2,127.4,79.2z"
	/>
</svg>
