<?xml version="1.0" encoding="utf-8"?>
<!-- Generator: Adobe Illustrator 25.2.3, SVG Export Plug-In . SVG Version: 6.00 Build 0)  -->
<svg version="1.1" id="Layer_1" xmlns="http://www.w3.org/2000/svg" xmlns:xlink="http://www.w3.org/1999/xlink" x="0px" y="0px"
	 viewBox="0 0 255 197" style="enable-background:new 0 0 255 197;" xml:space="preserve">
<path style="fill:#D1E3ED;stroke:#000000;stroke-width:12;stroke-miterlimit:10;" d="M212.3,177H42.8c-17.7,0-28.7-19.5-19.4-34.7
	L89.3,30.9c4.1-6.8,11.5-10.9,19.4-10.9h37.7c7.9,0,15.3,4.1,19.4,10.9l65.9,111.4C240.9,157.4,230,177,212.3,177z"/>
<path d="M140,62c3.3,0,6-2.7,6-6s-2.7-6-6-6s-6,2.7-6,6S136.7,62,140,62z"/>
<path d="M159,91.9c3.3,0,6-2.7,6-6s-2.7-6-6-6s-6,2.7-6,6S155.7,91.9,159,91.9z"/>
<path d="M121.5,91.9c3.3,0,6-2.7,6-6s-2.7-6-6-6s-6,2.7-6,6S118.2,91.9,121.5,91.9z"/>
</svg>
